<?xml version="1.0" standalone="no"?><svg xmlns="http://www.w3.org/2000/svg" viewBox="0 0 1440 320"><path fill="#131110" fill-opacity="1" d="M0,32L0,224L42.4,224L42.4,32L84.7,32L84.7,160L127.1,160L127.1,256L169.4,256L169.4,160L211.8,160L211.8,160L254.1,160L254.1,192L296.5,192L296.5,256L338.8,256L338.8,32L381.2,32L381.2,288L423.5,288L423.5,160L465.9,160L465.9,256L508.2,256L508.2,96L550.6,96L550.6,32L592.9,32L592.9,288L635.3,288L635.3,320L677.6,320L677.6,192L720,192L720,320L762.4,320L762.4,192L804.7,192L804.7,256L847.1,256L847.1,192L889.4,192L889.4,160L931.8,160L931.8,224L974.1,224L974.1,160L1016.5,160L1016.5,160L1058.8,160L1058.8,256L1101.2,256L1101.2,0L1143.5,0L1143.5,224L1185.9,224L1185.9,64L1228.2,64L1228.2,160L1270.6,160L1270.6,192L1312.9,192L1312.9,160L1355.3,160L1355.3,160L1397.6,160L1397.6,256L1440,256L1440,0L1397.6,0L1397.6,0L1355.3,0L1355.3,0L1312.9,0L1312.9,0L1270.6,0L1270.6,0L1228.2,0L1228.2,0L1185.9,0L1185.9,0L1143.5,0L1143.5,0L1101.2,0L1101.2,0L1058.8,0L1058.8,0L1016.5,0L1016.5,0L974.1,0L974.1,0L931.8,0L931.8,0L889.4,0L889.4,0L847.1,0L847.1,0L804.7,0L804.7,0L762.4,0L762.4,0L720,0L720,0L677.6,0L677.6,0L635.3,0L635.3,0L592.9,0L592.9,0L550.6,0L550.6,0L508.2,0L508.2,0L465.9,0L465.9,0L423.5,0L423.5,0L381.2,0L381.2,0L338.8,0L338.8,0L296.5,0L296.5,0L254.1,0L254.1,0L211.8,0L211.8,0L169.4,0L169.4,0L127.1,0L127.1,0L84.7,0L84.7,0L42.4,0L42.4,0L0,0L0,0Z"></path></svg>